<svg xmlns="http://www.w3.org/2000/svg" version="1.1" xmlns:xlink="http://www.w3.org/1999/xlink" xmlns:svgjs="http://svgjs.dev/svgjs" viewBox="0 0 1422 800"><circle r="7.5" cx="850" cy="738" fill="hsl(112, 50%, 50%)" opacity="0.42"></circle><circle r="13.5" cx="549" cy="220" fill="hsl(226, 50%, 50%)" opacity="0.95"></circle><circle r="16" cx="412" cy="30" stroke-width="2" stroke="hsl(224, 50%, 50%)" fill="none" opacity="0.17"></circle><circle r="14" cx="285" cy="259" stroke-width="2" stroke="hsl(241, 50%, 50%)" fill="none" opacity="0.37"></circle><circle r="10" cx="1115" cy="320" stroke-width="2" stroke="hsl(146, 50%, 50%)" fill="none" opacity="0.98"></circle><circle r="10.5" cx="1033" cy="213" stroke-width="2" stroke="hsl(117, 50%, 50%)" fill="none" opacity="0.46"></circle><circle r="6.5" cx="1028" cy="339" stroke-width="2" stroke="hsl(117, 50%, 50%)" fill="none" opacity="0.28"></circle><circle r="12" cx="378" cy="499" fill="hsl(266, 50%, 50%)" opacity="0.44"></circle><circle r="6" cx="14" cy="687" fill="hsl(72, 50%, 50%)" opacity="0.97"></circle><circle r="20" cx="307" cy="119" stroke-width="2" stroke="hsl(253, 50%, 50%)" fill="none" opacity="0.62"></circle><circle r="7.5" cx="1131" cy="633" stroke-width="2" stroke="hsl(146, 50%, 50%)" fill="none" opacity="0.82"></circle><circle r="12" cx="1125" cy="429" fill="hsl(146, 50%, 50%)" opacity="0.28"></circle><circle r="9" cx="67" cy="688" fill="hsl(115, 50%, 50%)" opacity="0.50"></circle><circle r="13" cx="591" cy="536" fill="hsl(206, 50%, 50%)" opacity="0.52"></circle><circle r="24.5" cx="208" cy="754" stroke-width="2" stroke="hsl(205, 50%, 50%)" fill="none" opacity="0.19"></circle><circle r="16.5" cx="674" cy="710" fill="hsl(165, 50%, 50%)" opacity="0.71"></circle><circle r="10" cx="327" cy="429" fill="hsl(257, 50%, 50%)" opacity="0.99"></circle><circle r="16" cx="601" cy="373" stroke-width="2" stroke="hsl(195, 50%, 50%)" fill="none" opacity="0.63"></circle><circle r="8" cx="717" cy="603" stroke-width="2" stroke="hsl(147, 50%, 50%)" fill="none" opacity="0.34"></circle><circle r="9.5" cx="706" cy="654" stroke-width="2" stroke="hsl(155, 50%, 50%)" fill="none" opacity="0.31"></circle><circle r="11.5" cx="1177" cy="641" stroke-width="2" stroke="hsl(168, 50%, 50%)" fill="none" opacity="0.17"></circle><circle r="20" cx="1308" cy="32" fill="hsl(265, 50%, 50%)" opacity="0.94"></circle><circle r="10.5" cx="155" cy="490" fill="hsl(162, 50%, 50%)" opacity="0.69"></circle><circle r="9.5" cx="868" cy="189" fill="hsl(110, 50%, 50%)" opacity="0.37"></circle><circle r="12.5" cx="465" cy="268" stroke-width="2" stroke="hsl(257, 50%, 50%)" fill="none" opacity="0.83"></circle><circle r="21" cx="1278" cy="100" fill="hsl(254, 50%, 50%)" opacity="0.52"></circle><circle r="12.5" cx="461" cy="29" stroke-width="2" stroke="hsl(195, 50%, 50%)" fill="none" opacity="0.69"></circle><circle r="11.5" cx="987" cy="30" fill="hsl(100, 50%, 50%)" opacity="0.24"></circle><circle r="8" cx="100" cy="620" stroke-width="2" stroke="hsl(131, 50%, 50%)" fill="none" opacity="0.56"></circle><circle r="10.5" cx="1171" cy="692" fill="hsl(168, 50%, 50%)" opacity="0.45"></circle><circle r="18.5" cx="250" cy="517" stroke-width="2" stroke="hsl(230, 50%, 50%)" fill="none" opacity="0.59"></circle><circle r="17" cx="1320" cy="588" fill="hsl(266, 50%, 50%)" opacity="0.42"></circle><circle r="16" cx="379" cy="135" fill="hsl(251, 50%, 50%)" opacity="0.15"></circle><circle r="7" cx="672" cy="348" stroke-width="2" stroke="hsl(165, 50%, 50%)" fill="none" opacity="0.91"></circle><circle r="9" cx="689" cy="125" fill="hsl(112, 50%, 50%)" opacity="0.61"></circle><circle r="8.5" cx="148" cy="241" stroke-width="2" stroke="hsl(162, 50%, 50%)" fill="none" opacity="0.32"></circle><circle r="12" cx="1302" cy="204" stroke-width="2" stroke="hsl(251, 50%, 50%)" fill="none" opacity="0.13"></circle><circle r="10.5" cx="445" cy="542" stroke-width="2" stroke="hsl(257, 50%, 50%)" fill="none" opacity="0.13"></circle><circle r="9" cx="1409" cy="587" stroke-width="2" stroke="hsl(318, 50%, 50%)" fill="none" opacity="0.80"></circle><circle r="7" cx="160" cy="274" fill="hsl(177, 50%, 50%)" opacity="0.29"></circle><circle r="19" cx="1356" cy="94" stroke-width="2" stroke="hsl(304, 50%, 50%)" fill="none" opacity="0.45"></circle><circle r="8" cx="871" cy="234" fill="hsl(110, 50%, 50%)" opacity="0.66"></circle><circle r="15" cx="165" cy="184" stroke-width="2" stroke="hsl(177, 50%, 50%)" fill="none" opacity="0.60"></circle><circle r="17.5" cx="316" cy="771" fill="hsl(257, 50%, 50%)" opacity="0.16"></circle><circle r="16.5" cx="345" cy="561" stroke-width="2" stroke="hsl(262, 50%, 50%)" fill="none" opacity="0.40"></circle><circle r="11" cx="974" cy="530" stroke-width="2" stroke="hsl(108, 50%, 50%)" fill="none" opacity="0.64"></circle><circle r="11.5" cx="756" cy="277" stroke-width="2" stroke="hsl(132, 50%, 50%)" fill="none" opacity="0.85"></circle><circle r="18" cx="470" cy="681" stroke-width="2" stroke="hsl(251, 50%, 50%)" fill="none" opacity="0.60"></circle><circle r="13" cx="511" cy="500" stroke-width="2" stroke="hsl(243, 50%, 50%)" fill="none" opacity="0.28"></circle><circle r="9.5" cx="1223" cy="316" fill="hsl(207, 50%, 50%)" opacity="0.77"></circle><circle r="15" cx="408" cy="642" stroke-width="2" stroke="hsl(265, 50%, 50%)" fill="none" opacity="0.26"></circle><circle r="16" cx="334" cy="387" stroke-width="2" stroke="hsl(262, 50%, 50%)" fill="none" opacity="0.58"></circle><circle r="8" cx="918" cy="168" stroke-width="2" stroke="hsl(102, 50%, 50%)" fill="none" opacity="0.60"></circle><circle r="10" cx="1021" cy="533" fill="hsl(113, 50%, 50%)" opacity="0.71"></circle><circle r="9.5" cx="963" cy="175" stroke-width="2" stroke="hsl(105, 50%, 50%)" fill="none" opacity="0.91"></circle><circle r="13" cx="236" cy="263" fill="hsl(218, 50%, 50%)" opacity="0.89"></circle><circle r="14" cx="1343" cy="524" stroke-width="2" stroke="hsl(281, 50%, 50%)" fill="none" opacity="0.31"></circle><circle r="9" cx="852" cy="482" stroke-width="2" stroke="hsl(112, 50%, 50%)" fill="none" opacity="0.66"></circle><circle r="15.5" cx="253" cy="171" stroke-width="2" stroke="hsl(233, 50%, 50%)" fill="none" opacity="0.23"></circle><circle r="11.5" cx="627" cy="172" fill="hsl(168, 50%, 50%)" opacity="0.63"></circle><circle r="11" cx="1109" cy="694" fill="hsl(137, 50%, 50%)" opacity="0.29"></circle><circle r="8.5" cx="117" cy="259" fill="hsl(146, 50%, 50%)" opacity="0.63"></circle><circle r="8" cx="756" cy="558" stroke-width="2" stroke="hsl(132, 50%, 50%)" fill="none" opacity="0.68"></circle><circle r="11.5" cx="1083" cy="232" fill="hsl(129, 50%, 50%)" opacity="0.74"></circle><circle r="15" cx="178" cy="41" stroke-width="2" stroke="hsl(274, 50%, 50%)" fill="none" opacity="0.54"></circle><circle r="10" cx="28" cy="565" stroke-width="2" stroke="hsl(86, 50%, 50%)" fill="none" opacity="0.97"></circle><circle r="25.5" cx="1210" cy="57" stroke-width="2" stroke="hsl(212, 50%, 50%)" fill="none" opacity="0.15"></circle><circle r="15.5" cx="494" cy="347" fill="hsl(243, 50%, 50%)" opacity="0.54"></circle><circle r="12.5" cx="1112" cy="540" fill="hsl(146, 50%, 50%)" opacity="0.30"></circle><circle r="9" cx="612" cy="119" stroke-width="2" stroke="hsl(146, 50%, 50%)" fill="none" opacity="0.70"></circle><circle r="8.5" cx="996" cy="127" fill="hsl(104, 50%, 50%)" opacity="0.58"></circle><circle r="20" cx="431" cy="362" stroke-width="2" stroke="hsl(262, 50%, 50%)" fill="none" opacity="0.29"></circle><circle r="8" cx="611" cy="80" fill="hsl(121, 50%, 50%)" opacity="0.37"></circle><circle r="15.5" cx="275" cy="26" fill="hsl(281, 50%, 50%)" opacity="0.36"></circle><circle r="6.5" cx="1050" cy="503" stroke-width="2" stroke="hsl(123, 50%, 50%)" fill="none" opacity="0.79"></circle><circle r="12.5" cx="958" cy="308" stroke-width="2" stroke="hsl(108, 50%, 50%)" fill="none" opacity="0.90"></circle><circle r="19.5" cx="590" cy="709" stroke-width="2" stroke="hsl(206, 50%, 50%)" fill="none" opacity="0.13"></circle><circle r="15.5" cx="616" cy="271" stroke-width="2" stroke="hsl(195, 50%, 50%)" fill="none" opacity="0.28"></circle><circle r="10" cx="429" cy="590" fill="hsl(262, 50%, 50%)" opacity="0.38"></circle><circle r="7.5" cx="792" cy="320" stroke-width="2" stroke="hsl(126, 50%, 50%)" fill="none" opacity="0.64"></circle><circle r="9.5" cx="1254" cy="270" fill="hsl(222, 50%, 50%)" opacity="0.93"></circle><circle r="11.5" cx="1207" cy="718" fill="hsl(193, 50%, 50%)" opacity="0.28"></circle><circle r="12.5" cx="230" cy="125" fill="hsl(238, 50%, 50%)" opacity="1.00"></circle><circle r="15" cx="354" cy="706" stroke-width="2" stroke="hsl(262, 50%, 50%)" fill="none" opacity="0.35"></circle><circle r="10" cx="132" cy="648" fill="hsl(146, 50%, 50%)" opacity="0.80"></circle><circle r="8" cx="149" cy="592" stroke-width="2" stroke="hsl(162, 50%, 50%)" fill="none" opacity="0.86"></circle><circle r="19" cx="207" cy="389" stroke-width="2" stroke="hsl(205, 50%, 50%)" fill="none" opacity="0.44"></circle><circle r="10.5" cx="149" cy="16" stroke-width="2" stroke="hsl(272, 50%, 50%)" fill="none" opacity="0.74"></circle><circle r="13.5" cx="138" cy="737" fill="hsl(162, 50%, 50%)" opacity="0.16"></circle><circle r="14" cx="662" cy="573" fill="hsl(175, 50%, 50%)" opacity="0.93"></circle><circle r="9.5" cx="117" cy="202" stroke-width="2" stroke="hsl(146, 50%, 50%)" fill="none" opacity="0.83"></circle><circle r="8" cx="822" cy="437" stroke-width="2" stroke="hsl(116, 50%, 50%)" fill="none" opacity="0.72"></circle><circle r="6.5" cx="1041" cy="377" fill="hsl(117, 50%, 50%)" opacity="1.00"></circle><circle r="14.5" cx="537" cy="559" fill="hsl(226, 50%, 50%)" opacity="0.46"></circle><circle r="14" cx="552" cy="126" fill="hsl(178, 50%, 50%)" opacity="0.32"></circle><circle r="13" cx="1403" cy="159" stroke-width="2" stroke="hsl(322, 50%, 50%)" fill="none" opacity="0.71"></circle><circle r="22" cx="1263" cy="632" stroke-width="2" stroke="hsl(222, 50%, 50%)" fill="none" opacity="0.91"></circle><circle r="10" cx="1308" cy="278" fill="hsl(251, 50%, 50%)" opacity="0.64"></circle><circle r="7.5" cx="175" cy="307" fill="hsl(177, 50%, 50%)" opacity="0.92"></circle><circle r="21.5" cx="1373" cy="768" stroke-width="2" stroke="hsl(294, 50%, 50%)" fill="none" opacity="0.14"></circle><circle r="9.5" cx="1077" cy="287" stroke-width="2" stroke="hsl(129, 50%, 50%)" fill="none" opacity="0.22"></circle><circle r="15.5" cx="423" cy="440" stroke-width="2" stroke="hsl(262, 50%, 50%)" fill="none" opacity="0.75"></circle><circle r="26" cx="1371" cy="684" fill="hsl(294, 50%, 50%)" opacity="0.37"></circle><circle r="20.5" cx="1300" cy="743" fill="hsl(251, 50%, 50%)" opacity="0.36"></circle><circle r="9" cx="569" cy="64" stroke-width="2" stroke="hsl(133, 50%, 50%)" fill="none" opacity="0.57"></circle><circle r="6.5" cx="1151" cy="269" stroke-width="2" stroke="hsl(156, 50%, 50%)" fill="none" opacity="0.45"></circle><circle r="18.5" cx="1112" cy="142" fill="hsl(155, 50%, 50%)" opacity="0.94"></circle><circle r="16.5" cx="550" cy="280" fill="hsl(226, 50%, 50%)" opacity="0.49"></circle><circle r="13" cx="221" cy="59" fill="hsl(267, 50%, 50%)" opacity="0.35"></circle><circle r="16" cx="459" cy="476" fill="hsl(257, 50%, 50%)" opacity="0.52"></circle><circle r="11.5" cx="1250" cy="413" fill="hsl(222, 50%, 50%)" opacity="0.36"></circle><circle r="9" cx="736" cy="136" stroke-width="2" stroke="hsl(112, 50%, 50%)" fill="none" opacity="0.10"></circle><circle r="8" cx="1122" cy="255" stroke-width="2" stroke="hsl(146, 50%, 50%)" fill="none" opacity="0.81"></circle><circle r="14.5" cx="338" cy="24" stroke-width="2" stroke="hsl(261, 50%, 50%)" fill="none" opacity="0.33"></circle><circle r="6.5" cx="820" cy="365" fill="hsl(120, 50%, 50%)" opacity="0.70"></circle><circle r="17.5" cx="1355" cy="155" fill="hsl(290, 50%, 50%)" opacity="0.36"></circle><circle r="9" cx="454" cy="612" fill="hsl(257, 50%, 50%)" opacity="0.76"></circle><circle r="15" cx="321" cy="231" stroke-width="2" stroke="hsl(257, 50%, 50%)" fill="none" opacity="0.15"></circle><circle r="10.5" cx="739" cy="679" fill="hsl(139, 50%, 50%)" opacity="0.93"></circle><circle r="15" cx="1056" cy="77" fill="hsl(126, 50%, 50%)" opacity="0.36"></circle><circle r="15.5" cx="129" cy="118" stroke-width="2" stroke="hsl(180, 50%, 50%)" fill="none" opacity="0.42"></circle><circle r="10.5" cx="768" cy="721" stroke-width="2" stroke="hsl(132, 50%, 50%)" fill="none" opacity="0.83"></circle><circle r="11.5" cx="808" cy="772" fill="hsl(120, 50%, 50%)" opacity="0.25"></circle><circle r="11" cx="466" cy="311" fill="hsl(257, 50%, 50%)" opacity="0.97"></circle><circle r="10" cx="1075" cy="408" fill="hsl(129, 50%, 50%)" opacity="0.74"></circle><circle r="11" cx="1015" cy="736" stroke-width="2" stroke="hsl(113, 50%, 50%)" fill="none" opacity="0.54"></circle><circle r="5" cx="821" cy="329" fill="hsl(120, 50%, 50%)" opacity="0.86"></circle><circle r="9.5" cx="59" cy="345" fill="hsl(100, 50%, 50%)" opacity="0.75"></circle><circle r="17.5" cx="103" cy="43" stroke-width="2" stroke="hsl(230, 50%, 50%)" fill="none" opacity="0.66"></circle><circle r="11" cx="988" cy="364" stroke-width="2" stroke="hsl(110, 50%, 50%)" fill="none" opacity="0.12"></circle><circle r="8" cx="858" cy="272" stroke-width="2" stroke="hsl(112, 50%, 50%)" fill="none" opacity="0.87"></circle><circle r="18.5" cx="275" cy="380" stroke-width="2" stroke="hsl(241, 50%, 50%)" fill="none" opacity="0.33"></circle><circle r="15.5" cx="182" cy="101" stroke-width="2" stroke="hsl(232, 50%, 50%)" fill="none" opacity="0.71"></circle><circle r="8.5" cx="39" cy="733" stroke-width="2" stroke="hsl(86, 50%, 50%)" fill="none" opacity="0.64"></circle><circle r="18.5" cx="1217" cy="153" fill="hsl(206, 50%, 50%)" opacity="0.40"></circle><circle r="9.5" cx="900" cy="776" stroke-width="2" stroke="hsl(108, 50%, 50%)" fill="none" opacity="0.31"></circle><circle r="14.5" cx="401" cy="689" fill="hsl(265, 50%, 50%)" opacity="0.21"></circle><circle r="12.5" cx="873" cy="124" stroke-width="2" stroke="hsl(87, 50%, 50%)" fill="none" opacity="0.46"></circle><circle r="10" cx="1178" cy="181" stroke-width="2" stroke="hsl(180, 50%, 50%)" fill="none" opacity="0.16"></circle><circle r="14" cx="1099" cy="768" stroke-width="2" stroke="hsl(137, 50%, 50%)" fill="none" opacity="0.66"></circle><circle r="8" cx="1158" cy="299" stroke-width="2" stroke="hsl(168, 50%, 50%)" fill="none" opacity="0.32"></circle><circle r="14" cx="647" cy="224" fill="hsl(175, 50%, 50%)" opacity="0.29"></circle><circle r="20.5" cx="292" cy="700" fill="hsl(250, 50%, 50%)" opacity="0.18"></circle><circle r="17" cx="38" cy="46" stroke-width="2" stroke="hsl(163, 50%, 50%)" fill="none" opacity="0.90"></circle><circle r="10.5" cx="1062" cy="712" fill="hsl(123, 50%, 50%)" opacity="0.15"></circle><circle r="10.5" cx="1144" cy="212" stroke-width="2" stroke="hsl(156, 50%, 50%)" fill="none" opacity="0.25"></circle><circle r="11.5" cx="1014" cy="600" stroke-width="2" stroke="hsl(113, 50%, 50%)" fill="none" opacity="0.91"></circle><circle r="7" cx="848" cy="322" stroke-width="2" stroke="hsl(112, 50%, 50%)" fill="none" opacity="0.71"></circle><circle r="9.5" cx="1198" cy="273" fill="hsl(180, 50%, 50%)" opacity="0.94"></circle><circle r="11" cx="941" cy="637" stroke-width="2" stroke="hsl(107, 50%, 50%)" fill="none" opacity="0.42"></circle><circle r="7" cx="20" cy="329" fill="hsl(72, 50%, 50%)" opacity="0.27"></circle><circle r="19" cx="427" cy="171" fill="hsl(250, 50%, 50%)" opacity="0.37"></circle><circle r="12" cx="75" cy="136" fill="hsl(136, 50%, 50%)" opacity="0.23"></circle><circle r="11" cx="1208" cy="389" stroke-width="2" stroke="hsl(193, 50%, 50%)" fill="none" opacity="0.83"></circle><circle r="11" cx="668" cy="629" fill="hsl(165, 50%, 50%)" opacity="0.71"></circle><circle r="17.5" cx="1350" cy="475" fill="hsl(281, 50%, 50%)" opacity="0.73"></circle><circle r="11" cx="502" cy="175" fill="hsl(228, 50%, 50%)" opacity="0.35"></circle><circle r="6" cx="12" cy="758" stroke-width="2" stroke="hsl(72, 50%, 50%)" fill="none" opacity="0.98"></circle><circle r="17" cx="1373" cy="618" fill="hsl(294, 50%, 50%)" opacity="0.47"></circle><circle r="16.5" cx="474" cy="760" stroke-width="2" stroke="hsl(251, 50%, 50%)" fill="none" opacity="0.77"></circle><circle r="18.5" cx="415" cy="296" fill="hsl(265, 50%, 50%)" opacity="0.87"></circle><circle r="19" cx="233" cy="670" stroke-width="2" stroke="hsl(218, 50%, 50%)" fill="none" opacity="0.75"></circle><circle r="10" cx="734" cy="509" stroke-width="2" stroke="hsl(139, 50%, 50%)" fill="none" opacity="0.80"></circle><circle r="9" cx="906" cy="608" stroke-width="2" stroke="hsl(108, 50%, 50%)" fill="none" opacity="0.28"></circle><circle r="9" cx="1255" cy="334" fill="hsl(222, 50%, 50%)" opacity="0.92"></circle><circle r="12.5" cx="179" cy="652" fill="hsl(192, 50%, 50%)" opacity="0.26"></circle><circle r="15" cx="1196" cy="770" stroke-width="2" stroke="hsl(180, 50%, 50%)" fill="none" opacity="0.67"></circle><circle r="10" cx="1220" cy="242" stroke-width="2" stroke="hsl(193, 50%, 50%)" fill="none" opacity="0.27"></circle><circle r="7.5" cx="659" cy="146" stroke-width="2" stroke="hsl(142, 50%, 50%)" fill="none" opacity="0.82"></circle><circle r="14" cx="36" cy="483" stroke-width="2" stroke="hsl(86, 50%, 50%)" fill="none" opacity="0.14"></circle><circle r="18.5" cx="1120" cy="39" stroke-width="2" stroke="hsl(159, 50%, 50%)" fill="none" opacity="0.13"></circle><circle r="6.5" cx="1299" cy="251" fill="hsl(251, 50%, 50%)" opacity="0.64"></circle><circle r="10.5" cx="215" cy="548" fill="hsl(205, 50%, 50%)" opacity="0.11"></circle><circle r="11.5" cx="92" cy="527" stroke-width="2" stroke="hsl(131, 50%, 50%)" fill="none" opacity="0.83"></circle><circle r="18.5" cx="273" cy="452" fill="hsl(241, 50%, 50%)" opacity="0.27"></circle><circle r="11" cx="1030" cy="160" fill="hsl(118, 50%, 50%)" opacity="0.49"></circle><circle r="13.5" cx="944" cy="707" stroke-width="2" stroke="hsl(107, 50%, 50%)" fill="none" opacity="0.88"></circle><circle r="8" cx="850" cy="27" stroke-width="2" stroke="hsl(69, 50%, 50%)" fill="none" opacity="0.69"></circle><circle r="9" cx="144" cy="530" stroke-width="2" stroke="hsl(162, 50%, 50%)" fill="none" opacity="0.15"></circle><circle r="9" cx="791" cy="468" stroke-width="2" stroke="hsl(126, 50%, 50%)" fill="none" opacity="0.78"></circle><circle r="8.5" cx="596" cy="20" fill="hsl(112, 50%, 50%)" opacity="0.83"></circle><circle r="9.5" cx="753" cy="434" stroke-width="2" stroke="hsl(139, 50%, 50%)" fill="none" opacity="0.53"></circle><circle r="11" cx="1245" cy="207" fill="hsl(222, 50%, 50%)" opacity="0.93"></circle><circle r="9" cx="1077" cy="475" fill="hsl(129, 50%, 50%)" opacity="0.59"></circle><circle r="17.5" cx="427" cy="90" fill="hsl(223, 50%, 50%)" opacity="0.35"></circle><circle r="9" cx="818" cy="106" fill="hsl(79, 50%, 50%)" opacity="0.33"></circle><circle r="22" cx="1388" cy="340" fill="hsl(307, 50%, 50%)" opacity="0.94"></circle><circle r="12" cx="715" cy="53" stroke-width="2" stroke="hsl(77, 50%, 50%)" fill="none" opacity="0.27"></circle><circle r="17" cx="387" cy="393" stroke-width="2" stroke="hsl(266, 50%, 50%)" fill="none" opacity="0.94"></circle><circle r="11.5" cx="956" cy="94" stroke-width="2" stroke="hsl(96, 50%, 50%)" fill="none" opacity="0.61"></circle><circle r="7" cx="1065" cy="580" stroke-width="2" stroke="hsl(123, 50%, 50%)" fill="none" opacity="0.52"></circle><circle r="11.5" cx="707" cy="468" fill="hsl(155, 50%, 50%)" opacity="0.59"></circle><circle r="10" cx="917" cy="557" stroke-width="2" stroke="hsl(107, 50%, 50%)" fill="none" opacity="0.59"></circle><circle r="14" cx="561" cy="339" fill="hsl(216, 50%, 50%)" opacity="0.28"></circle><circle r="11" cx="564" cy="641" fill="hsl(216, 50%, 50%)" opacity="0.49"></circle><circle r="10.5" cx="666" cy="392" stroke-width="2" stroke="hsl(175, 50%, 50%)" fill="none" opacity="0.80"></circle><circle r="8" cx="757" cy="97" fill="hsl(84, 50%, 50%)" opacity="0.83"></circle><circle r="6.5" cx="112" cy="298" fill="hsl(146, 50%, 50%)" opacity="0.96"></circle><circle r="12.5" cx="931" cy="372" stroke-width="2" stroke="hsl(107, 50%, 50%)" fill="none" opacity="0.77"></circle><circle r="10.5" cx="29" cy="188" fill="hsl(86, 50%, 50%)" opacity="0.65"></circle><circle r="7" cx="140" cy="304" stroke-width="2" stroke="hsl(162, 50%, 50%)" fill="none" opacity="0.45"></circle><circle r="7" cx="795" cy="685" fill="hsl(126, 50%, 50%)" opacity="0.77"></circle><circle r="14" cx="399" cy="565" fill="hsl(266, 50%, 50%)" opacity="0.94"></circle><circle r="9.5" cx="22" cy="120" stroke-width="2" stroke="hsl(100, 50%, 50%)" fill="none" opacity="0.62"></circle><circle r="6.5" cx="743" cy="585" fill="hsl(139, 50%, 50%)" opacity="0.72"></circle><circle r="20.5" cx="539" cy="763" stroke-width="2" stroke="hsl(226, 50%, 50%)" fill="none" opacity="0.75"></circle><circle r="12.5" cx="160" cy="352" fill="hsl(177, 50%, 50%)" opacity="0.38"></circle><circle r="21.5" cx="284" cy="609" fill="hsl(241, 50%, 50%)" opacity="0.34"></circle><circle r="11.5" cx="701" cy="327" stroke-width="2" stroke="hsl(155, 50%, 50%)" fill="none" opacity="0.39"></circle><circle r="9" cx="43" cy="641" stroke-width="2" stroke="hsl(86, 50%, 50%)" fill="none" opacity="0.27"></circle><circle r="11" cx="329" cy="468" stroke-width="2" stroke="hsl(257, 50%, 50%)" fill="none" opacity="0.80"></circle><circle r="16" cx="727" cy="764" fill="hsl(147, 50%, 50%)" opacity="0.70"></circle><circle r="17" cx="1178" cy="575" fill="hsl(180, 50%, 50%)" opacity="0.68"></circle><circle r="10" cx="751" cy="334" fill="hsl(139, 50%, 50%)" opacity="0.56"></circle><circle r="11" cx="1156" cy="366" stroke-width="2" stroke="hsl(168, 50%, 50%)" fill="none" opacity="0.92"></circle><circle r="14" cx="705" cy="257" stroke-width="2" stroke="hsl(155, 50%, 50%)" fill="none" opacity="0.46"></circle><circle r="6.5" cx="796" cy="572" stroke-width="2" stroke="hsl(126, 50%, 50%)" fill="none" opacity="0.69"></circle><circle r="14" cx="710" cy="191" fill="hsl(155, 50%, 50%)" opacity="0.57"></circle><circle r="13" cx="43" cy="409" stroke-width="2" stroke="hsl(86, 50%, 50%)" fill="none" opacity="0.45"></circle><circle r="12" cx="225" cy="211" fill="hsl(218, 50%, 50%)" opacity="0.23"></circle><circle r="21" cx="331" cy="326" fill="hsl(257, 50%, 50%)" opacity="0.86"></circle><circle r="8.5" cx="798" cy="612" fill="hsl(126, 50%, 50%)" opacity="0.46"></circle><circle r="14.5" cx="1376" cy="554" fill="hsl(294, 50%, 50%)" opacity="0.28"></circle><circle r="20.5" cx="1392" cy="423" stroke-width="2" stroke="hsl(307, 50%, 50%)" fill="none" opacity="0.88"></circle><circle r="13" cx="1368" cy="22" stroke-width="2" stroke="hsl(299, 50%, 50%)" fill="none" opacity="0.48"></circle><circle r="6.5" cx="1095" cy="655" fill="hsl(137, 50%, 50%)" opacity="0.31"></circle><circle r="6.5" cx="154" cy="561" fill="hsl(162, 50%, 50%)" opacity="0.58"></circle><circle r="17" cx="1317" cy="341" fill="hsl(266, 50%, 50%)" opacity="0.74"></circle><circle r="9.5" cx="856" cy="531" fill="hsl(112, 50%, 50%)" opacity="0.95"></circle><circle r="11" cx="26" cy="257" fill="hsl(86, 50%, 50%)" opacity="0.55"></circle><circle r="6.5" cx="779" cy="18" fill="hsl(67, 50%, 50%)" opacity="0.37"></circle><circle r="14" cx="668" cy="513" stroke-width="2" stroke="hsl(165, 50%, 50%)" fill="none" opacity="0.82"></circle><circle r="13.5" cx="451" cy="222" fill="hsl(257, 50%, 50%)" opacity="0.53"></circle><circle r="10.5" cx="1184" cy="332" fill="hsl(180, 50%, 50%)" opacity="0.35"></circle><circle r="16" cx="1354" cy="293" stroke-width="2" stroke="hsl(281, 50%, 50%)" fill="none" opacity="0.75"></circle><circle r="13.5" cx="1269" cy="372" stroke-width="2" stroke="hsl(237, 50%, 50%)" fill="none" opacity="0.21"></circle><circle r="10" cx="642" cy="326" fill="hsl(185, 50%, 50%)" opacity="0.16"></circle><circle r="8" cx="829" cy="565" stroke-width="2" stroke="hsl(116, 50%, 50%)" fill="none" opacity="0.80"></circle><circle r="7" cx="789" cy="506" fill="hsl(126, 50%, 50%)" opacity="0.86"></circle><circle r="14.5" cx="1262" cy="487" stroke-width="2" stroke="hsl(222, 50%, 50%)" fill="none" opacity="0.77"></circle><circle r="11" cx="738" cy="390" fill="hsl(139, 50%, 50%)" opacity="0.73"></circle><circle r="10.5" cx="811" cy="252" stroke-width="2" stroke="hsl(120, 50%, 50%)" fill="none" opacity="0.90"></circle><circle r="9.5" cx="74" cy="216" fill="hsl(115, 50%, 50%)" opacity="0.51"></circle><circle r="11.5" cx="488" cy="613" fill="hsl(251, 50%, 50%)" opacity="0.24"></circle><circle r="11" cx="883" cy="680" fill="hsl(110, 50%, 50%)" opacity="0.37"></circle><circle r="10" cx="981" cy="775" stroke-width="2" stroke="hsl(110, 50%, 50%)" fill="none" opacity="0.92"></circle><circle r="10.5" cx="339" cy="66" stroke-width="2" stroke="hsl(257, 50%, 50%)" fill="none" opacity="0.37"></circle><circle r="5.5" cx="792" cy="535" fill="hsl(126, 50%, 50%)" opacity="0.25"></circle><circle r="8.5" cx="1063" cy="635" fill="hsl(123, 50%, 50%)" opacity="0.40"></circle><circle r="16.5" cx="242" cy="324" stroke-width="2" stroke="hsl(218, 50%, 50%)" fill="none" opacity="0.13"></circle><circle r="10" cx="226" cy="15" stroke-width="2" stroke="hsl(295, 50%, 50%)" fill="none" opacity="0.41"></circle><circle r="6.5" cx="1063" cy="549" stroke-width="2" stroke="hsl(123, 50%, 50%)" fill="none" opacity="0.20"></circle><circle r="15" cx="483" cy="132" fill="hsl(211, 50%, 50%)" opacity="0.93"></circle><circle r="13" cx="213" cy="595" fill="hsl(205, 50%, 50%)" opacity="0.24"></circle><circle r="10.5" cx="204" cy="292" stroke-width="2" stroke="hsl(205, 50%, 50%)" fill="none" opacity="0.37"></circle><circle r="12.5" cx="1136" cy="488" fill="hsl(156, 50%, 50%)" opacity="0.59"></circle><circle r="8.5" cx="515" cy="19" stroke-width="2" stroke="hsl(148, 50%, 50%)" fill="none" opacity="0.23"></circle><circle r="12.5" cx="490" cy="77" fill="hsl(178, 50%, 50%)" opacity="0.92"></circle><circle r="8" cx="618" cy="570" stroke-width="2" stroke="hsl(195, 50%, 50%)" fill="none" opacity="0.58"></circle><circle r="17.5" cx="527" cy="680" fill="hsl(235, 50%, 50%)" opacity="0.20"></circle><circle r="8" cx="795" cy="61" fill="hsl(69, 50%, 50%)" opacity="0.54"></circle><circle r="13" cx="1403" cy="50" fill="hsl(319, 50%, 50%)" opacity="0.94"></circle><circle r="16.5" cx="313" cy="521" stroke-width="2" stroke="hsl(257, 50%, 50%)" fill="none" opacity="0.55"></circle><circle r="17" cx="1237" cy="549" stroke-width="2" stroke="hsl(207, 50%, 50%)" fill="none" opacity="0.37"></circle><circle r="8" cx="1277" cy="234" stroke-width="2" stroke="hsl(237, 50%, 50%)" fill="none" opacity="0.87"></circle><circle r="11.5" cx="774" cy="212" fill="hsl(132, 50%, 50%)" opacity="0.38"></circle><circle r="9.5" cx="854" cy="600" fill="hsl(112, 50%, 50%)" opacity="0.89"></circle><circle r="11.5" cx="576" cy="586" stroke-width="2" stroke="hsl(216, 50%, 50%)" fill="none" opacity="0.82"></circle><circle r="15" cx="634" cy="770" stroke-width="2" stroke="hsl(185, 50%, 50%)" fill="none" opacity="0.19"></circle><circle r="10" cx="492" cy="212" fill="hsl(243, 50%, 50%)" opacity="0.83"></circle><circle r="11.5" cx="894" cy="308" stroke-width="2" stroke="hsl(108, 50%, 50%)" fill="none" opacity="0.45"></circle><circle r="18.5" cx="206" cy="460" stroke-width="2" stroke="hsl(205, 50%, 50%)" fill="none" opacity="0.25"></circle><circle r="10.5" cx="75" cy="284" fill="hsl(115, 50%, 50%)" opacity="0.72"></circle><circle r="15" cx="554" cy="471" fill="hsl(226, 50%, 50%)" opacity="0.84"></circle><circle r="7.5" cx="1051" cy="316" stroke-width="2" stroke="hsl(123, 50%, 50%)" fill="none" opacity="0.38"></circle><circle r="12.5" cx="529" cy="611" stroke-width="2" stroke="hsl(235, 50%, 50%)" fill="none" opacity="0.51"></circle><circle r="6" cx="44" cy="784" stroke-width="2" stroke="hsl(86, 50%, 50%)" fill="none" opacity="0.46"></circle><circle r="10" cx="505" cy="293" fill="hsl(243, 50%, 50%)" opacity="0.53"></circle><circle r="8.5" cx="66" cy="593" stroke-width="2" stroke="hsl(100, 50%, 50%)" fill="none" opacity="0.22"></circle><circle r="17.5" cx="346" cy="184" fill="hsl(262, 50%, 50%)" opacity="0.14"></circle><circle r="9" cx="884" cy="388" fill="hsl(110, 50%, 50%)" opacity="0.53"></circle><circle r="15.5" cx="1291" cy="159" stroke-width="2" stroke="hsl(258, 50%, 50%)" fill="none" opacity="0.56"></circle><circle r="21.5" cx="515" cy="409" fill="hsl(235, 50%, 50%)" opacity="0.56"></circle><circle r="10.5" cx="660" cy="42" stroke-width="2" stroke="hsl(90, 50%, 50%)" fill="none" opacity="0.91"></circle><circle r="18" cx="352" cy="621" stroke-width="2" stroke="hsl(262, 50%, 50%)" fill="none" opacity="0.26"></circle><circle r="12" cx="1003" cy="265" stroke-width="2" stroke="hsl(113, 50%, 50%)" fill="none" opacity="0.87"></circle><circle r="7" cx="1047" cy="449" fill="hsl(123, 50%, 50%)" opacity="0.58"></circle><circle r="10.5" cx="187" cy="241" fill="hsl(192, 50%, 50%)" opacity="0.13"></circle><circle r="20" cx="414" cy="755" stroke-width="2" stroke="hsl(265, 50%, 50%)" fill="none" opacity="0.47"></circle><circle r="9.5" cx="1112" cy="596" stroke-width="2" stroke="hsl(146, 50%, 50%)" fill="none" opacity="0.71"></circle><circle r="13" cx="900" cy="49" fill="hsl(76, 50%, 50%)" opacity="0.91"></circle><circle r="11.5" cx="1102" cy="367" stroke-width="2" stroke="hsl(137, 50%, 50%)" fill="none" opacity="0.88"></circle><circle r="10.5" cx="107" cy="340" fill="hsl(131, 50%, 50%)" opacity="0.56"></circle><circle r="13.5" cx="373" cy="84" fill="hsl(247, 50%, 50%)" opacity="0.99"></circle><circle r="10.5" cx="501" cy="248" stroke-width="2" stroke="hsl(243, 50%, 50%)" fill="none" opacity="0.60"></circle><circle r="17.5" cx="365" cy="267" fill="hsl(265, 50%, 50%)" opacity="0.65"></circle><circle r="12.5" cx="983" cy="437" fill="hsl(110, 50%, 50%)" opacity="0.13"></circle><circle r="15.5" cx="404" cy="231" stroke-width="2" stroke="hsl(265, 50%, 50%)" fill="none" opacity="0.60"></circle><circle r="5.5" cx="881" cy="428" fill="hsl(110, 50%, 50%)" opacity="0.25"></circle><circle r="7.5" cx="823" cy="706" fill="hsl(116, 50%, 50%)" opacity="0.55"></circle><circle r="8" cx="781" cy="647" stroke-width="2" stroke="hsl(126, 50%, 50%)" fill="none" opacity="0.91"></circle><circle r="12.5" cx="631" cy="660" stroke-width="2" stroke="hsl(185, 50%, 50%)" fill="none" opacity="0.18"></circle><circle r="21" cx="1315" cy="422" fill="hsl(266, 50%, 50%)" opacity="0.88"></circle><circle r="10.5" cx="1170" cy="416" fill="hsl(168, 50%, 50%)" opacity="0.61"></circle><circle r="9.5" cx="91" cy="754" fill="hsl(131, 50%, 50%)" opacity="0.85"></circle><circle r="12" cx="365" cy="460" fill="hsl(265, 50%, 50%)" opacity="0.48"></circle><circle r="7.5" cx="1025" cy="411" fill="hsl(117, 50%, 50%)" opacity="0.45"></circle><circle r="14.5" cx="1254" cy="707" stroke-width="2" stroke="hsl(222, 50%, 50%)" fill="none" opacity="0.11"></circle><circle r="16" cx="1188" cy="493" stroke-width="2" stroke="hsl(180, 50%, 50%)" fill="none" opacity="0.64"></circle><circle r="13" cx="1000" cy="661" fill="hsl(113, 50%, 50%)" opacity="0.36"></circle><circle r="11.5" cx="1228" cy="449" stroke-width="2" stroke="hsl(207, 50%, 50%)" fill="none" opacity="0.87"></circle><circle r="9" cx="906" cy="506" stroke-width="2" stroke="hsl(108, 50%, 50%)" fill="none" opacity="0.55"></circle><circle r="9" cx="1273" cy="301" fill="hsl(237, 50%, 50%)" opacity="0.29"></circle><circle r="10" cx="842" cy="651" fill="hsl(116, 50%, 50%)" opacity="0.79"></circle><circle r="13" cx="412" cy="516" fill="hsl(265, 50%, 50%)" opacity="0.97"></circle><circle r="11" cx="128" cy="444" fill="hsl(146, 50%, 50%)" opacity="0.55"></circle><circle r="5.5" cx="879" cy="457" stroke-width="2" stroke="hsl(110, 50%, 50%)" fill="none" opacity="0.32"></circle><circle r="8" cx="533" cy="64" stroke-width="2" stroke="hsl(157, 50%, 50%)" fill="none" opacity="0.21"></circle><circle r="15" cx="607" cy="469" fill="hsl(195, 50%, 50%)" opacity="0.46"></circle><circle r="11" cx="797" cy="163" fill="hsl(114, 50%, 50%)" opacity="0.28"></circle><circle r="9.5" cx="605" cy="627" fill="hsl(195, 50%, 50%)" opacity="0.98"></circle><circle r="23" cx="1375" cy="236" fill="hsl(294, 50%, 50%)" opacity="0.62"></circle><circle r="15" cx="575" cy="180" stroke-width="2" stroke="hsl(216, 50%, 50%)" fill="none" opacity="0.18"></circle><circle r="13.5" cx="1402" cy="509" stroke-width="2" stroke="hsl(318, 50%, 50%)" fill="none" opacity="0.76"></circle><circle r="11.5" cx="114" cy="396" stroke-width="2" stroke="hsl(146, 50%, 50%)" fill="none" opacity="0.44"></circle><circle r="15" cx="267" cy="76" fill="hsl(264, 50%, 50%)" opacity="0.20"></circle><circle r="10.5" cx="934" cy="461" stroke-width="2" stroke="hsl(107, 50%, 50%)" fill="none" opacity="0.53"></circle><circle r="8.5" cx="893" cy="730" stroke-width="2" stroke="hsl(108, 50%, 50%)" fill="none" opacity="0.21"></circle><circle r="13" cx="940" cy="239" stroke-width="2" stroke="hsl(107, 50%, 50%)" fill="none" opacity="0.63"></circle><circle r="7.5" cx="816" cy="399" fill="hsl(120, 50%, 50%)" opacity="0.28"></circle><circle r="14" cx="485" cy="543" stroke-width="2" stroke="hsl(251, 50%, 50%)" fill="none" opacity="0.52"></circle><circle r="12" cx="656" cy="437" fill="hsl(175, 50%, 50%)" opacity="0.50"></circle><circle r="16.5" cx="1293" cy="537" fill="hsl(251, 50%, 50%)" opacity="0.98"></circle></svg>