<svg xmlns="http://www.w3.org/2000/svg" version="1.1" xmlns:xlink="http://www.w3.org/1999/xlink" xmlns:svgjs="http://svgjs.com/svgjs" width="1440" height="560" preserveAspectRatio="none" viewBox="0 0 1440 560"><g mask="url(&quot;#SvgjsMask1000&quot;)" fill="none"><rect width="1440" height="560" x="0" y="0" fill="#0e2a47"></rect><path d="M 0,78 C 57.6,105.8 172.8,231 288,217 C 403.2,203 460.8,13.6 576,8 C 691.2,2.4 748.8,168.8 864,189 C 979.2,209.2 1036.8,94 1152,109 C 1267.2,124 1382.4,233 1440,264L1440 560L0 560z" fill="#184a7e"></path><path d="M 0,366 C 96,387.6 288,483.6 480,474 C 672,464.4 768,308.6 960,318 C 1152,327.4 1344,480.4 1440,521L1440 560L0 560z" fill="#2264ab"></path></g><defs><mask id="SvgjsMask1000"><rect width="1440" height="560" fill="#ffffff"></rect></mask></defs></svg>