<svg id="visual" viewBox="0 0 900 600" width="900" height="600" xmlns="http://www.w3.org/2000/svg" xmlns:xlink="http://www.w3.org/1999/xlink" version="1.1"><rect x="0" y="0" width="900" height="600" fill="#002233"></rect><path d="M0 516L21.5 514.2C43 512.3 86 508.7 128.8 494.5C171.7 480.3 214.3 455.7 257.2 451.3C300 447 343 463 385.8 470C428.7 477 471.3 475 514.2 469.7C557 464.3 600 455.7 642.8 460.7C685.7 465.7 728.3 484.3 771.2 480.5C814 476.7 857 450.3 878.5 437.2L900 424L900 601L878.5 601C857 601 814 601 771.2 601C728.3 601 685.7 601 642.8 601C600 601 557 601 514.2 601C471.3 601 428.7 601 385.8 601C343 601 300 601 257.2 601C214.3 601 171.7 601 128.8 601C86 601 43 601 21.5 601L0 601Z" fill="#0066FF" stroke-linecap="round" stroke-linejoin="miter"></path></svg>